<svg id="Capa_1" enable-background="new 0 0 512 512" height="512" viewBox="0 0 512 512" width="512" xmlns="http://www.w3.org/2000/svg"><g><path d="m345.172 512h-309.657c-10.035 0-18.171-8.135-18.171-18.171v-439.902c0-10.035 8.135-18.171 18.171-18.171h309.657c10.035 0 18.171 8.135 18.171 18.171v439.902c0 10.036-8.136 18.171-18.171 18.171z" fill="#c8effe"/><g><path d="m374.008 261.668h180.675v60.619h-180.675z" fill="#d83131" transform="matrix(0 1 -1 0 756.323 -172.368)"/><path d="m434.036 162.986v38.655h60.619v-38.655c0-5.357-4.342-9.699-9.699-9.699h-41.221c-5.356 0-9.699 4.342-9.699 9.699z" fill="#f47c7c"/><path d="m494.656 382.315h-60.619l25.353 50.795c2.415 4.838 7.498 4.838 9.912 0z" fill="#f9c6c6"/><path d="m374.008 261.668h180.675v60.619h-180.675z" fill="#d83131" transform="matrix(0 1 -1 0 756.323 -172.368)"/><path d="m434.036 162.986v38.655h60.619v-38.655c0-5.357-4.342-9.699-9.699-9.699h-41.221c-5.356 0-9.699 4.342-9.699 9.699z" fill="#f47c7c"/><path d="m494.656 382.315h-60.619l25.353 50.795c2.415 4.838 7.498 4.838 9.912 0z" fill="#f9c6c6"/><path d="m465.453 201.64h29.202v180.675h-29.202z" fill="#ca2c2c"/><path d="m484.956 153.286h-29.202c5.357 0 9.699 4.342 9.699 9.699v38.655h29.202v-38.655c0-5.356-4.342-9.699-9.699-9.699z" fill="#ee6161"/><path d="m465.454 382.315-15.708 31.472 9.645 19.323c2.415 4.838 7.498 4.838 9.912 0l25.353-50.795z" fill="#f9b1b1"/></g><path d="m380.761 0h-309.658c-10.035 0-18.17 8.135-18.17 18.171v17.586h292.071c10.035 0 18.171 8.135 18.171 18.171v422.316h17.586c10.035 0 18.171-8.135 18.171-18.171v-439.902c-.001-10.036-8.136-18.171-18.171-18.171z" fill="#3c87d0"/><path d="m109.284 470.543h-42.581c-4.552 0-8.241-3.69-8.241-8.241v-42.581c0-4.552 3.69-8.241 8.241-8.241h42.581c4.552 0 8.241 3.69 8.241 8.241v42.581c0 4.551-3.69 8.241-8.241 8.241z" fill="#7ca1b1"/><g><path d="m315.911 448.737h-164.142c-4.268 0-7.726-3.459-7.726-7.726s3.459-7.726 7.726-7.726h164.143c4.268 0 7.726 3.459 7.726 7.726s-3.459 7.726-7.727 7.726z" fill="#3e5959"/></g><path d="m205.736 234.789h-136.973c-5.69 0-10.302-4.612-10.302-10.302v-136.972c0-5.69 4.612-10.302 10.302-10.302h136.972c5.69 0 10.302 4.612 10.302 10.302v136.972c.001 5.69-4.612 10.302-10.301 10.302z" fill="#fee2ca"/><circle cx="137.25" cy="132.621" fill="#ffcebf" r="27.577"/><path d="m107.176 206.958h60.147v-16.687c0-16.609-13.464-30.073-30.073-30.073-16.609 0-30.073 13.464-30.073 30.073v16.687z" fill="#e94444"/><g><g><path d="m315.911 122.661h-68.289c-4.268 0-7.726-3.459-7.726-7.726 0-4.268 3.459-7.726 7.726-7.726h68.289c4.268 0 7.726 3.459 7.726 7.726.001 4.267-3.458 7.726-7.726 7.726z" fill="#3e5959"/></g><g><path d="m315.911 166.465h-68.289c-4.268 0-7.726-3.459-7.726-7.726s3.459-7.726 7.726-7.726h68.289c4.268 0 7.726 3.459 7.726 7.726s-3.458 7.726-7.726 7.726z" fill="#3e5959"/></g><g><path d="m315.911 213.187h-68.289c-4.268 0-7.726-3.459-7.726-7.726 0-4.268 3.459-7.726 7.726-7.726h68.289c4.268 0 7.726 3.459 7.726 7.726.001 4.267-3.458 7.726-7.726 7.726z" fill="#3e5959"/></g></g><g><path d="m315.911 287.797h-257.449c-4.268 0-7.726-3.459-7.726-7.726s3.459-7.726 7.726-7.726h257.45c4.268 0 7.726 3.459 7.726 7.726s-3.459 7.726-7.727 7.726z" fill="#3e5959"/></g><g><path d="m315.911 331.6h-257.449c-4.268 0-7.726-3.459-7.726-7.726s3.459-7.726 7.726-7.726h257.45c4.268 0 7.726 3.459 7.726 7.726s-3.459 7.726-7.727 7.726z" fill="#3e5959"/></g><g><path d="m315.911 375.403h-257.449c-4.268 0-7.726-3.459-7.726-7.726s3.459-7.726 7.726-7.726h257.45c4.268 0 7.726 3.459 7.726 7.726s-3.459 7.726-7.727 7.726z" fill="#3e5959"/></g><g><path d="m81.623 464.473c-.223 0-.447-.01-.671-.029-2.358-.205-4.491-1.48-5.79-3.458l-19.224-29.294c-2.341-3.567-1.347-8.358 2.22-10.699 3.567-2.34 8.358-1.347 10.699 2.22l13.847 21.101 48.915-52.036c2.923-3.111 7.812-3.261 10.922-.338s3.261 7.813.338 10.922l-55.628 59.177c-1.466 1.56-3.507 2.434-5.628 2.434z" fill="#3e5959"/></g><path d="m345.172 35.757h-32.228c10.035 0 18.171 8.135 18.171 18.171v439.902c0 10.035-8.135 18.171-18.171 18.171h32.228c10.035 0 18.171-8.135 18.171-18.171v-439.903c0-10.035-8.136-18.17-18.171-18.17z" fill="#b3dafe"/></g></svg>